<svg xmlns:xlink="http://www.w3.org/1999/xlink" id="visual" viewBox="0 0 960 540" width="960"
     height="540"
     xmlns="http://www.w3.org/2000/svg" version="1.1">
    <path d="M356 0L353 12.8C350 25.7 344 51.3 338.7 77C333.3 102.7 328.7 128.3 298.5 154C268.3 179.7 212.7 205.3 182.8 231.2C153 257 149 283 161.5 308.8C174 334.7 203 360.3 212 386C221 411.7 210 437.3 212.8 463C215.7 488.7 232.3 514.3 240.7 527.2L249 540L0 540L0 527.2C0 514.3 0 488.7 0 463C0 437.3 0 411.7 0 386C0 360.3 0 334.7 0 308.8C0 283 0 257 0 231.2C0 205.3 0 179.7 0 154C0 128.3 0 102.7 0 77C0 51.3 0 25.7 0 12.8L0 0Z"
          fill="#715DF2" stroke-linecap="round" stroke-linejoin="miter"></path>
</svg>
