<svg xmlns="http://www.w3.org/2000/svg" width="500" zoomAndPan="magnify"
     viewBox="0 0 375 374.999991" height="500" preserveAspectRatio="xMidYMid meet" version="1.0">
    <defs>
        <g/>
        <clipPath id="id1">
            <path d="M 44.671875 44.671875 L 330.421875 44.671875 L 330.421875 330.421875 L 44.671875 330.421875 Z M 44.671875 44.671875 "
                  clip-rule="nonzero"/>
        </clipPath>
    </defs>
    <g clip-path="url(#id1)">
        <path fill="#000000"
              d="M 311.839844 53.585938 C 317.152344 53.585938 321.511719 57.945312 321.511719 63.257812 L 321.511719 311.839844 C 321.511719 317.152344 317.152344 321.511719 311.839844 321.511719 L 63.257812 321.511719 C 57.945312 321.511719 53.585938 317.152344 53.585938 311.839844 L 53.585938 63.257812 C 53.585938 57.945312 57.945312 53.585938 63.257812 53.585938 L 311.839844 53.585938 M 311.839844 44.671875 L 63.257812 44.671875 C 53.015625 44.671875 44.671875 53.015625 44.671875 63.257812 L 44.671875 311.839844 C 44.671875 322.082031 53.015625 330.421875 63.257812 330.421875 L 311.839844 330.421875 C 322.082031 330.421875 330.421875 322.082031 330.421875 311.839844 L 330.421875 63.257812 C 330.421875 53.015625 322.082031 44.671875 311.839844 44.671875 "
              fill-opacity="1" fill-rule="nonzero"/>
    </g>
    <g fill="#8c52ff" fill-opacity="1">
        <g transform="translate(121.879157, 292.931407)">
            <g>
                <path d="M 81.765625 -93.328125 C 82.578125 -93.328125 83.300781 -93.054688 83.9375 -92.515625 C 84.476562 -91.878906 84.75 -91.148438 84.75 -90.328125 L 84.75 -3 C 84.75 -2.175781 84.476562 -1.492188 83.9375 -0.953125 C 83.300781 -0.316406 82.578125 0 81.765625 0 L 69.109375 0 C 68.296875 0 67.617188 -0.316406 67.078125 -0.953125 C 66.441406 -1.492188 66.125 -2.175781 66.125 -3 L 66.125 -61.078125 L 54.96875 -43.40625 C 54.507812 -42.675781 53.875 -42.039062 53.0625 -41.5 C 52.15625 -41.039062 51.289062 -40.8125 50.46875 -40.8125 L 44.484375 -40.8125 C 43.671875 -40.8125 42.8125 -41.039062 41.90625 -41.5 C 41.082031 -42.039062 40.445312 -42.675781 40 -43.40625 L 28.703125 -61.21875 L 28.703125 -3 C 28.703125 -2.175781 28.429688 -1.492188 27.890625 -0.953125 C 27.253906 -0.316406 26.53125 0 25.71875 0 L 13.0625 0 C 12.25 0 11.566406 -0.316406 11.015625 -0.953125 C 10.378906 -1.492188 10.0625 -2.175781 10.0625 -3 L 10.0625 -90.328125 C 10.0625 -91.148438 10.378906 -91.878906 11.015625 -92.515625 C 11.566406 -93.054688 12.25 -93.328125 13.0625 -93.328125 L 25.71875 -93.328125 L 26.671875 -93.1875 C 27.117188 -93.101562 27.570312 -92.878906 28.03125 -92.515625 C 28.9375 -92.054688 29.613281 -91.46875 30.0625 -90.75 L 47.484375 -60.671875 L 64.890625 -90.75 C 65.347656 -91.46875 65.984375 -92.054688 66.796875 -92.515625 L 67.890625 -93.0625 C 68.253906 -93.238281 68.660156 -93.328125 69.109375 -93.328125 Z M 81.765625 -93.328125 "/>
            </g>
        </g>
    </g>
    <g fill="#8c52ff" fill-opacity="1">
        <g transform="translate(216.70105, 292.931407)">
            <g>
                <path d="M 60.671875 -93.328125 C 64.023438 -93.328125 67.15625 -92.691406 70.0625 -91.421875 C 72.96875 -90.148438 75.507812 -88.425781 77.6875 -86.25 C 79.863281 -84.070312 81.582031 -81.53125 82.84375 -78.625 C 84.113281 -75.726562 84.75 -72.601562 84.75 -69.25 L 84.75 -61.359375 C 84.75 -58.085938 84.113281 -54.976562 82.84375 -52.03125 C 81.582031 -49.082031 79.863281 -46.519531 77.6875 -44.34375 C 75.507812 -42.175781 72.96875 -40.457031 70.0625 -39.1875 C 67.15625 -37.914062 64.023438 -37.28125 60.671875 -37.28125 L 28.703125 -37.28125 L 28.703125 -3 C 28.703125 -2.175781 28.429688 -1.46875 27.890625 -0.875 C 27.347656 -0.289062 26.664062 0 25.84375 0 L 13.0625 0 C 12.25 0 11.546875 -0.289062 10.953125 -0.875 C 10.359375 -1.46875 10.0625 -2.175781 10.0625 -3 L 10.0625 -90.328125 C 10.0625 -91.148438 10.359375 -91.851562 10.953125 -92.4375 C 11.546875 -93.03125 12.25 -93.328125 13.0625 -93.328125 Z M 66.125 -69.25 C 66.125 -70.789062 65.597656 -72.082031 64.546875 -73.125 C 63.503906 -74.164062 62.210938 -74.6875 60.671875 -74.6875 L 28.703125 -74.6875 L 28.703125 -55.921875 L 60.671875 -55.921875 C 62.210938 -55.921875 63.503906 -56.441406 64.546875 -57.484375 C 65.597656 -58.523438 66.125 -59.816406 66.125 -61.359375 Z M 66.125 -69.25 "/>
            </g>
        </g>
    </g>
</svg>
